<?xml version="1.0" encoding="UTF-8"?>
<svg viewBox="0 0 240 200" data-export="char-transparent" data-om-id="98041eb0:22" xmlns="http://www.w3.org/2000/svg">
          <path fill="#0E0E0C" d="M 30 130 Q 25 100 40 88 Q 55 76 80 78 Q 85 60 100 55 Q 115 50 130 58 L 145 38 Q 155 28 165 32 Q 172 36 170 46 L 162 70 Q 175 78 182 92 Q 188 105 184 118 L 195 122 L 200 110 L 205 128 L 196 138 L 188 138 Q 184 150 172 158 L 178 178 L 168 178 L 162 162 L 130 162 L 124 178 L 114 178 L 118 158 Q 100 158 90 148 L 78 148 L 72 178 L 62 178 L 64 150 L 50 142 Q 35 138 30 130 Z M 152 50 Q 156 50 156 54 Q 156 58 152 58 Q 148 58 148 54 Q 148 50 152 50 Z" data-om-id="98041eb0:23"/>
          <circle fill="#F5C518" cx="158" cy="48" r="3" data-om-id="98041eb0:24"/>
          <path fill="#F2EAD3" d="M 138 60 L 142 66 L 146 60 L 150 66 L 154 60 L 158 66 L 162 60 L 158 58 L 154 56 L 150 58 L 146 56 L 142 58 Z" data-om-id="98041eb0:25"/>
        </svg>